<svg width="129" height="128" viewBox="0 0 129 128" fill="none" xmlns="http://www.w3.org/2000/svg">
<rect x="16.5869" y="46.3323" width="13.1876" height="12.434" rx="2.18323" fill="#C3161C"/>
<rect x="94.582" y="46.3323" width="13.1876" height="12.434" rx="2.18323" fill="#C3161C"/>
<rect x="20.7316" y="82.5039" width="18.8394" height="14.6947" rx="1.94138" fill="#90091F"/>
<rect x="84.7855" y="82.5039" width="18.8394" height="14.6947" rx="1.94138" fill="#90091F"/>
<rect x="15.8334" y="80.9968" width="92.6899" height="7.53576" rx="2.18323" fill="#C3161C"/>
<path fill-rule="evenodd" clip-rule="evenodd" d="M42.839 34.6518H81.5176C87.847 34.6518 92.978 40.05 92.978 46.709V53.4912H31.3787V46.709C31.3787 40.05 36.5097 34.6518 42.839 34.6518ZM26.0067 54.1542V46.709C26.0067 36.9286 33.5428 29 42.839 29H81.5176C90.8139 29 98.35 36.9286 98.35 46.709V54.1542C102.743 55.7278 105.886 59.928 105.886 64.8622V80.9967H18.471V64.8622C18.471 59.928 21.6137 55.7278 26.0067 54.1542Z" fill="#F00B31"/>
<rect x="50.8748" y="70.4468" width="22.6073" height="3.01431" rx="1.50715" fill="#90091F"/>
<rect x="50.8748" y="79.8663" width="22.6073" height="9.79649" rx="1.94138" fill="#90091F"/>
<circle cx="32.7889" cy="69.3164" r="5.27503" fill="white"/>
<circle cx="91.5678" cy="69.3164" r="5.27503" fill="white"/>
<path d="M103.675 22.3469C103.168 22.1219 102.621 22 102.048 22L103.675 22.3469ZM103.675 22.3469L120.938 29.5833C123.277 30.5634 125.087 32.863 125.065 35.6166C125.065 35.6171 125.065 35.6175 125.065 35.618L124.065 35.61L103.675 22.3469ZM104.894 69.5214L104.898 69.5194L102.048 22C101.49 22 100.932 22.1199 100.428 22.3485L83.1587 29.5832L83.1583 29.5834C80.8152 30.5662 79.0333 32.8583 78.9494 35.5793C78.949 35.5942 78.9489 35.6091 78.9491 35.6241C79.0788 44.856 82.879 61.8001 99.1989 69.5195L99.2031 69.5214C101.003 70.363 103.093 70.363 104.894 69.5214Z" fill="#0C96F3" stroke="#63BCF7" stroke-width="2" stroke-linejoin="round"/>
<path fill-rule="evenodd" clip-rule="evenodd" d="M83.6466 30.4609L83.5428 30.5044C81.5265 31.3502 80.0175 33.3155 79.9469 35.6089C80.0744 44.6831 83.8134 61.1361 99.6236 68.6148C101.156 69.3309 102.935 69.3309 104.467 68.6148C106.308 67.7439 107.985 66.7514 109.511 65.6629C94.6585 63.9983 83.1127 51.398 83.1127 36.1009C83.1127 34.1725 83.2962 32.2871 83.6466 30.4609Z" fill="#0978C3"/>
<path d="M112.766 39.0487C113.353 39.632 113.353 40.5747 112.766 41.158L100.742 53.1047C100.155 53.688 99.2062 53.688 98.6191 53.1047L92.6059 47.1314C92.019 46.548 92.019 45.6053 92.6059 45.022C93.1929 44.4387 94.1445 44.4387 94.7316 45.022L99.6383 49.936L110.643 39.0487C111.23 38.4644 112.179 38.4644 112.766 39.0487Z" fill="white"/>
</svg>
