<svg width="129" height="128" viewBox="0 0 129 128" fill="none" xmlns="http://www.w3.org/2000/svg">
<path fill-rule="evenodd" clip-rule="evenodd" d="M75.9335 91.4C97.5831 91.4 115.134 73.8496 115.134 52.2C115.134 30.5504 97.5831 13 75.9335 13C54.284 13 36.7335 30.5504 36.7335 52.2C36.7335 73.8496 54.284 91.4 75.9335 91.4ZM75.9335 74.25C88.1114 74.25 97.9835 64.3779 97.9835 52.2C97.9835 40.0221 88.1114 30.15 75.9335 30.15C63.7556 30.15 53.8835 40.0221 53.8835 52.2C53.8835 64.3779 63.7556 74.25 75.9335 74.25Z" fill="#0C96F3"/>
<path fill-rule="evenodd" clip-rule="evenodd" d="M98.5109 84.2493C93.8294 86.2246 88.684 87.3167 83.2835 87.3167C61.634 87.3167 44.0835 69.7663 44.0835 48.1167C44.0835 34.8735 50.6507 23.1641 60.7061 16.0675C46.6201 22.011 36.7335 35.9509 36.7335 52.2C36.7335 73.8496 54.284 91.4 75.9335 91.4C84.3398 91.4 92.1281 88.754 98.5109 84.2493Z" fill="#0978C3"/>
<rect x="58.7834" y="51.3833" width="34.3" height="2.45" fill="#C3161C"/>
<rect x="61.4895" y="42.9177" width="34.3" height="2.45" transform="rotate(30 61.4895 42.9177)" fill="#C3161C"/>
<rect x="68.0658" y="36.9393" width="34.3" height="2.45" transform="rotate(60 68.0658 36.9393)" fill="#C3161C"/>
<rect x="76.7501" y="35.05" width="34.3" height="2.45" transform="rotate(90 76.7501 35.05)" fill="#C3161C"/>
<rect x="85.2157" y="37.756" width="34.3" height="2.45" transform="rotate(120 85.2157 37.756)" fill="#C3161C"/>
<rect x="91.1941" y="44.3323" width="34.3" height="2.45" transform="rotate(150 91.1941 44.3323)" fill="#C3161C"/>
<path fill-rule="evenodd" clip-rule="evenodd" d="M75.9335 69.35C85.4052 69.35 93.0835 61.6717 93.0835 52.2C93.0835 42.7283 85.4052 35.05 75.9335 35.05C66.4619 35.05 58.7835 42.7283 58.7835 52.2C58.7835 61.6717 66.4619 69.35 75.9335 69.35ZM75.9335 74.25C88.1114 74.25 97.9835 64.3779 97.9835 52.2C97.9835 40.0221 88.1114 30.15 75.9335 30.15C63.7557 30.15 53.8835 40.0221 53.8835 52.2C53.8835 64.3779 63.7557 74.25 75.9335 74.25Z" fill="#F00B31"/>
<path fill-rule="evenodd" clip-rule="evenodd" d="M58.5722 38.6047C55.6349 42.3505 53.8835 47.0707 53.8835 52.1999C53.8835 64.3778 63.7557 74.2499 75.9335 74.2499C78.9352 74.2499 81.7967 73.6502 84.4049 72.5639C79.9972 72.2959 75.8632 71.0144 72.2328 68.9496C64.54 67.2576 58.7835 60.401 58.7835 52.1999C58.7835 51.8973 58.7914 51.5964 58.8069 51.2976C58.2582 49.1029 57.9669 46.8063 57.9669 44.4416C57.9669 42.4404 58.1755 40.4879 58.5722 38.6047Z" fill="#C3161C"/>
<circle cx="75.9335" cy="52.2" r="8.16667" fill="#086BAD"/>
<path d="M13.8668 59.8334C13.8668 56.5197 16.5531 53.8334 19.8668 53.8334H85.4501C88.7639 53.8334 91.4502 56.5197 91.4502 59.8334V76.4167C91.4502 79.7304 88.7639 82.4167 85.4502 82.4167H19.8668C16.5531 82.4167 13.8668 79.7304 13.8668 76.4167V59.8334Z" fill="#F00B31"/>
<path d="M13.8668 88.4167C13.8668 85.103 16.5531 82.4167 19.8668 82.4167H85.4502C88.7639 82.4167 91.4502 85.103 91.4502 88.4167V105C91.4502 108.314 88.7639 111 85.4502 111H19.8668C16.5531 111 13.8668 108.314 13.8668 105V88.4167Z" fill="#F00B31"/>
<path d="M25.5723 53.8334C22.2637 53.8394 19.5835 56.5234 19.5835 59.8334V76.4167C19.5835 79.7304 22.2698 82.4167 25.5835 82.4167H85.461C85.4574 82.4167 85.4538 82.4167 85.4502 82.4167H19.8668C16.5531 82.4167 13.8668 79.7304 13.8668 76.4167V59.8334C13.8668 56.5197 16.5531 53.8334 19.8668 53.8334H25.5723Z" fill="#C3161C"/>
<path d="M19.8668 82.4167C16.5531 82.4167 13.8668 85.103 13.8668 88.4168V105C13.8668 108.314 16.5531 111 19.8668 111H25.5727C22.2639 110.994 19.5835 108.31 19.5835 105V88.4168C19.5835 85.1031 22.2698 82.4168 25.5835 82.4168H85.4613C85.4576 82.4168 85.4539 82.4167 85.4501 82.4167H19.8668Z" fill="#C3161C"/>
<rect x="13.8668" y="60.3667" width="77.5833" height="2.45" fill="#90091F"/>
<rect x="13.8668" y="88.95" width="77.5833" height="2.45" fill="#90091F"/>
<rect x="13.8668" y="64.45" width="77.5833" height="2.45" fill="#90091F"/>
<rect x="13.8668" y="93.0334" width="77.5833" height="2.45" fill="#90091F"/>
<rect x="13.8668" y="68.5333" width="77.5833" height="2.45" fill="#90091F"/>
<rect x="13.8668" y="97.1167" width="77.5833" height="2.45" fill="#90091F"/>
<rect x="13.8668" y="72.6167" width="77.5833" height="2.45" fill="#90091F"/>
<rect x="13.8668" y="101.2" width="77.5833" height="2.45" fill="#90091F"/>
</svg>
