<svg width="128" height="128" viewBox="0 0 128 128" fill="none" xmlns="http://www.w3.org/2000/svg">
<path d="M76.3473 14.3412L55.3 46.9441L57.8349 56.0374L75.0446 59.9052L78.7528 46.523L74.6601 38.1652L81.2441 37.07L79.8348 31.2445L86.1415 30.3899L86.8017 21.0674L76.3473 14.3412Z" fill="#C3161C"/>
<path fill-rule="evenodd" clip-rule="evenodd" d="M82.3641 18.2122C81.4193 18.957 80.5718 19.8584 79.8621 20.9085L73.1174 30.8889C69.4245 36.3534 70.8606 43.7769 76.3251 47.4698C77.0358 47.9501 77.7796 48.3436 78.544 48.6528L78.7528 46.5229L74.6601 38.1651L81.244 37.0698L79.8348 31.2444L86.1415 30.3898L86.8017 21.0673L82.3641 18.2122Z" fill="#F00B31"/>
<rect x="15.1591" y="41.0779" width="38.1397" height="17.251" transform="rotate(30.9008 15.1591 41.0779)" fill="#C3161C"/>
<path fill-rule="evenodd" clip-rule="evenodd" d="M28.668 49.1633C28.631 49.2284 28.5931 49.2933 28.5544 49.358C25.7051 54.1186 19.536 55.6681 14.7754 52.8188L11.0203 50.5714C10.6352 50.3409 10.2711 50.0887 9.92866 49.8173L15.1591 41.0781L28.668 49.1633Z" fill="#F00B31"/>
<path fill-rule="evenodd" clip-rule="evenodd" d="M24.2031 46.4909L19.8482 53.7672C19.2021 54.8467 17.8033 55.198 16.7238 54.5519C15.6444 53.9059 15.293 52.507 15.9391 51.4276L20.294 44.1513L24.2031 46.4909Z" fill="#F6657D"/>
<path fill-rule="evenodd" clip-rule="evenodd" d="M19.4765 54.2362C18.21 54.1795 16.9399 53.8819 15.7354 53.3259C15.5298 52.716 15.5826 52.0231 15.9391 51.4276L20.294 44.1513L24.2031 46.4909L19.8482 53.7672C19.7428 53.9433 19.6174 54.1 19.4765 54.2362Z" fill="#F890A2"/>
<path fill-rule="evenodd" clip-rule="evenodd" d="M27.3213 48.357L31.2304 50.6967L26.7678 58.1529C26.1218 59.2323 24.7229 59.5837 23.6435 58.9376C22.564 58.2915 22.2127 56.8927 22.8587 55.8132L27.3213 48.357Z" fill="#F6657D"/>
<path fill-rule="evenodd" clip-rule="evenodd" d="M28.6681 49.1633C28.631 49.2284 28.5932 49.2933 28.5545 49.3579C27.5341 51.0628 26.088 52.3558 24.4333 53.1825L27.3213 48.3572L28.6681 49.1633Z" fill="#F890A2"/>
<rect x="26.7175" y="27.2649" width="8.2466" height="10.5084" transform="rotate(-25.9047 26.7175 27.2649)" fill="#600615"/>
<rect x="20.3595" y="26.8423" width="6.87157" height="16.8972" transform="rotate(-25.9047 20.3595 26.8423)" fill="#C3161C"/>
<path fill-rule="evenodd" clip-rule="evenodd" d="M23.1512 25.4865C23.0986 26.3008 23.25 27.1395 23.632 27.926L26.7547 34.3557C27.8611 36.6338 30.5077 37.6624 32.8336 36.7973L33.9227 39.0397L27.7415 42.0417L20.3595 26.8423L23.1512 25.4865Z" fill="#90091F"/>
<path fill-rule="evenodd" clip-rule="evenodd" d="M65.6698 19.9708C61.1202 18.9863 56.3254 21.8497 54.6275 26.7543C54.4436 27.2854 54.3031 27.8203 54.204 28.3543C49.5689 26.4024 46.8267 22.3153 48.0075 18.9045C49.2601 15.2862 54.4531 13.7992 59.6063 15.5833C62.2722 16.5061 64.4051 18.1235 65.6698 19.9708Z" fill="#90091F"/>
<path fill-rule="evenodd" clip-rule="evenodd" d="M62.8584 17.2139C59.499 18.736 55.6092 17.7427 53.3623 14.9862C55.2516 14.6602 57.4325 14.8307 59.6064 15.5833C60.8091 15.9997 61.9034 16.5574 62.8584 17.2139Z" fill="#C3161C"/>
<rect x="53.2488" y="28.167" width="30.1566" height="10.2499" transform="rotate(64.0953 53.2488 28.167)" fill="#600615"/>
<path fill-rule="evenodd" clip-rule="evenodd" d="M55.1216 32.0229L57.1429 36.1847L54.4135 37.5103C53.2642 38.0685 51.8801 37.5893 51.3219 36.4401C50.7638 35.2908 51.2429 33.9067 52.3922 33.3485L55.1216 32.0229Z" fill="#90091F"/>
<rect x="32.5018" y="20.9824" width="18.5668" height="17.2272" transform="rotate(-25.9047 32.5018 20.9824)" fill="#C3161C"/>
<path fill-rule="evenodd" clip-rule="evenodd" d="M37.4504 18.5792C37.51 19.6925 37.788 20.8125 38.3056 21.8783C40.3839 26.1574 45.5377 27.9416 49.8168 25.8633L51.0218 25.2781C52.2431 24.6849 53.2611 23.8413 54.0442 22.839L56.7293 28.3675L40.028 36.4789L32.5019 20.9826L37.4504 18.5792Z" fill="#90091F"/>
<rect x="80.8767" y="55.8035" width="19.8209" height="10.5674" transform="rotate(-42.2113 80.8767 55.8035)" fill="#600615"/>
<path fill-rule="evenodd" clip-rule="evenodd" d="M88.9316 48.4969L80.8767 55.8036L87.9766 63.6305L98.8623 53.7561C96.9507 53.6558 94.9594 53.1008 93.0835 52.0557C91.3926 51.1137 89.9909 49.8824 88.9316 48.4969Z" fill="#90091F"/>
<path fill-rule="evenodd" clip-rule="evenodd" d="M112.925 26.6576L102.212 36.3748L109.146 44.018L120.036 34.1392C120.732 35.9015 121.073 37.8368 120.975 39.8524C120.605 47.4385 114.156 53.2887 106.57 52.9192C98.9835 52.5496 93.1333 46.1003 93.5028 38.5142C93.8723 30.9281 100.322 25.0779 107.908 25.4474C109.696 25.5345 111.388 25.9595 112.925 26.6576Z" fill="#F00B31"/>
<path fill-rule="evenodd" clip-rule="evenodd" d="M120.985 39.576C118.142 43.7638 113.604 46.3775 108.621 46.1347C101.745 45.7998 96.2411 40.1337 95.049 32.8092C94.1514 34.5231 93.603 36.4546 93.5027 38.5141C93.1332 46.1002 98.9834 52.5495 106.569 52.9191C114.156 53.2886 120.605 47.4384 120.974 39.8523C120.979 39.76 120.983 39.6679 120.985 39.576Z" fill="#C3161C"/>
<path fill-rule="evenodd" clip-rule="evenodd" d="M73.4068 39.8745C73.4068 38.2177 72.0637 36.8745 70.4068 36.8745H59.7275C58.0707 36.8745 56.7275 38.2177 56.7275 39.8745V42.3303C56.7275 43.6564 55.851 44.8109 54.6117 45.283C53.8403 45.5769 53.0838 45.9011 52.3437 46.2542C51.1214 46.8374 49.6472 46.6544 48.6896 45.6968L46.9269 43.934C45.7553 42.7625 43.8558 42.7625 42.6842 43.9341L35.1328 51.4855C33.9613 52.657 33.9613 54.5565 35.1328 55.7281L37.0507 57.646C37.9921 58.5874 38.1862 60.0306 37.636 61.2429C37.3202 61.9385 37.0298 62.648 36.7658 63.3703C36.3049 64.6311 35.1404 65.5287 33.798 65.5287H31.0733C29.4164 65.5287 28.0733 66.8718 28.0733 68.5287V79.208C28.0733 80.8648 29.4165 82.208 31.0733 82.208H33.798C35.1404 82.208 36.3049 83.1056 36.7658 84.3664C37.0298 85.0887 37.3202 85.7982 37.636 86.4938C38.1863 87.7061 37.9921 89.1494 37.0507 90.0908L35.1329 92.0086C33.9613 93.1801 33.9613 95.0796 35.1329 96.2512L42.6843 103.803C43.8559 104.974 45.7554 104.974 46.927 103.803L48.6896 102.04C49.6473 101.082 51.1214 100.899 52.3437 101.483C53.0838 101.836 53.8403 102.16 54.6117 102.454C55.851 102.926 56.7275 104.08 56.7275 105.406V107.862C56.7275 109.519 58.0707 110.862 59.7275 110.862H70.4068C72.0637 110.862 73.4068 109.519 73.4068 107.862V105.717C73.4068 104.359 74.3256 103.184 75.6079 102.735C76.4634 102.435 77.3014 102.099 78.1202 101.727C79.3325 101.177 80.7758 101.371 81.7172 102.312L83.2074 103.803C84.379 104.974 86.2785 104.974 87.45 103.803L95.0014 96.2512C96.173 95.0797 96.173 93.1802 95.0014 92.0086L93.6664 90.6735C92.7088 89.7159 92.5258 88.2418 93.109 87.0195C93.5206 86.1567 93.893 85.2716 94.2238 84.3664C94.6847 83.1056 95.8493 82.208 97.1917 82.208H99.061C100.718 82.208 102.061 80.8648 102.061 79.208V68.5287C102.061 66.8718 100.718 65.5287 99.061 65.5287H97.1916C95.8492 65.5287 94.6847 64.6311 94.2238 63.3703C93.893 62.4651 93.5206 61.58 93.1089 60.7172C92.5258 59.4949 92.7088 58.0208 93.6664 57.0632L95.0014 55.7281C96.173 54.5565 96.173 52.657 95.0014 51.4854L87.45 43.934C86.2785 42.7625 84.379 42.7625 83.2074 43.934L81.7172 45.4243C80.7758 46.3657 79.3325 46.5598 78.1202 46.0095C77.3014 45.6378 76.4633 45.3012 75.6079 45.0016C74.3256 44.5523 73.4068 43.378 73.4068 42.0193V39.8745ZM65.0671 85.8369C71.6772 85.8369 77.0357 80.4784 77.0357 73.8683C77.0357 67.2583 71.6772 61.8997 65.0671 61.8997C58.4571 61.8997 53.0985 67.2583 53.0985 73.8683C53.0985 80.4784 58.4571 85.8369 65.0671 85.8369Z" fill="#0C96F3"/>
<path fill-rule="evenodd" clip-rule="evenodd" d="M40.4648 46.1536L35.1328 51.4855C33.9613 52.6571 33.9613 54.5566 35.1328 55.7282L37.0507 57.646C37.9921 58.5874 38.1862 60.0307 37.636 61.243C37.3202 61.9386 37.0298 62.6481 36.7658 63.3703C36.3049 64.6312 35.1404 65.5288 33.798 65.5288H31.0733C29.4164 65.5288 28.0733 66.8719 28.0733 68.5288V79.208C28.0733 80.8649 29.4165 82.208 31.0733 82.208H33.798C35.1404 82.208 36.3049 83.1057 36.7658 84.3665C37.0298 85.0887 37.3202 85.7982 37.636 86.4938C38.1863 87.7062 37.9921 89.1494 37.0507 90.0908L35.1329 92.0086C33.9613 93.1802 33.9613 95.0797 35.1329 96.2513L42.6843 103.803C43.8559 104.974 45.7554 104.974 46.927 103.803L48.6896 102.04C49.6473 101.082 51.1214 100.899 52.3437 101.483C53.0838 101.836 53.8403 102.16 54.6117 102.454C55.851 102.926 56.7275 104.08 56.7275 105.406V107.862C56.7275 109.519 58.0707 110.862 59.7275 110.862H70.4068C72.0637 110.862 73.4068 109.519 73.4068 107.862V105.718C73.4068 104.359 74.3256 103.184 75.6079 102.735C76.4634 102.436 77.3014 102.099 78.1202 101.727C79.3325 101.177 80.7758 101.371 81.7172 102.313L83.2074 103.803C84.379 104.974 86.2785 104.974 87.45 103.803L91.2069 100.046C90.06 100.128 88.9018 100.17 87.7339 100.17C61.3978 100.17 40.0482 78.8208 40.0482 52.4847C40.0482 50.3382 40.19 48.2249 40.4648 46.1536Z" fill="#0978C3"/>
</svg>
