<svg width="129" height="128" viewBox="0 0 129 128" fill="none" xmlns="http://www.w3.org/2000/svg">
<path d="M62.6131 22.0947C62.7785 22.1586 62.9612 22.1851 63.1496 22.165L64.1728 22.1647C64.3628 22.1848 64.5469 22.1574 64.7133 22.0922C64.8385 22.2201 64.9955 22.3207 65.1774 22.3803C65.3407 22.4338 65.502 22.496 65.6613 22.5669L65.6741 22.5726L68.5811 23.7828C69.1685 24.0273 69.8428 23.7494 70.0873 23.1621C70.3318 22.5747 70.0539 21.9004 69.4665 21.6559L66.5848 20.4563C66.3593 20.3565 66.1292 20.2678 65.8948 20.191C65.6302 20.1043 65.3568 20.1187 65.1163 20.2129C64.9355 20.0282 64.6917 19.9029 64.4145 19.8737C64.3982 19.8719 64.3817 19.8702 64.365 19.8684C63.6977 19.7976 62.7176 19.6937 62.208 20.2099C61.9685 20.1174 61.6967 20.104 61.4337 20.1905C61.1997 20.2675 60.9698 20.3568 60.7458 20.4581L57.8671 21.6559C57.2797 21.9002 57.0017 22.5745 57.2461 23.1619C57.4905 23.7492 58.1647 24.0273 58.7521 23.7829L61.6656 22.5707L61.6831 22.5627C61.8348 22.4935 61.9921 22.4321 62.1537 22.3789C62.3334 22.3198 62.4887 22.2207 62.6131 22.0947Z" fill="#0C96F3"/>
<path d="M53.0521 25.0766C53.6394 24.8322 53.9175 24.1579 53.6731 23.5706C53.4287 22.9832 52.7544 22.7052 52.1671 22.9495L46.3757 25.3591C45.7884 25.6035 45.5103 26.2778 45.7547 26.8652C45.9991 27.4525 46.6734 27.7306 47.2607 27.4862L53.0521 25.0766Z" fill="#0C96F3"/>
<path d="M75.3461 22.9496C74.7588 22.7051 74.0845 22.9831 73.84 23.5704C73.5955 24.1577 73.8734 24.832 74.4607 25.0765L80.249 27.4861C80.8363 27.7306 81.5106 27.4527 81.7551 26.8654C81.9996 26.278 81.7217 25.6037 81.1343 25.3592L75.3461 22.9496Z" fill="#0C96F3"/>
<path d="M41.4694 29.8958C42.0568 29.6514 42.3348 28.9771 42.0904 28.3898C41.846 27.8024 41.1718 27.5243 40.5844 27.7687L34.7931 30.1783C34.2057 30.4227 33.9277 31.097 34.1721 31.6843C34.4165 32.2717 35.0907 32.5497 35.6781 32.3054L41.4694 29.8958Z" fill="#0C96F3"/>
<path d="M86.9226 27.7688C86.3353 27.5243 85.661 27.8022 85.4165 28.3896C85.172 28.9769 85.4499 29.6512 86.0372 29.8957L91.8255 32.3053C92.4128 32.5498 93.0871 32.2719 93.3316 31.6845C93.5761 31.0972 93.2982 30.4229 92.7109 30.1784L86.9226 27.7688Z" fill="#0C96F3"/>
<path d="M29.8868 34.7149C30.4741 34.4706 30.7522 33.7963 30.5078 33.2089C30.2634 32.6216 29.5891 32.3435 29.0018 32.5879L26.1056 33.7929C24.9878 34.2585 23.9422 34.8783 23.0005 35.6244C22.5019 36.0195 22.4179 36.744 22.813 37.2426C23.208 37.7413 23.9325 37.8252 24.4312 37.4302C25.2095 36.8135 26.0725 36.3024 26.9915 35.9196L29.8868 34.7149Z" fill="#0C96F3"/>
<path d="M98.4991 32.588C97.9118 32.3435 97.2375 32.6214 96.993 33.2087C96.7485 33.7961 97.0264 34.4704 97.6137 34.7149L100.508 35.9197C101.425 36.3013 102.285 36.8098 103.059 37.4226C103.558 37.8175 104.282 37.7334 104.677 37.2347C105.072 36.7359 104.988 36.0115 104.489 35.6165C103.551 34.8734 102.507 34.2565 101.393 33.7928L98.4991 32.588Z" fill="#0C96F3"/>
<path fill-rule="evenodd" clip-rule="evenodd" d="M108.609 41.4572C108.413 40.8522 107.763 40.5212 107.158 40.7178C106.553 40.9145 106.222 41.5644 106.418 42.1694C106.714 43.0781 106.871 44.041 106.863 45.0389L106.863 45.0423C106.858 45.9505 106.834 46.8973 106.789 47.8783C106.76 48.5138 107.252 49.0525 107.887 49.0816C108.523 49.1107 109.062 48.6191 109.091 47.9836C109.137 46.972 109.162 45.9941 109.166 45.0543C109.176 43.8019 108.979 42.5936 108.609 41.4572ZM109.166 45.0543L108.014 45.0482L109.166 45.0575L109.166 45.0543Z" fill="#0C96F3"/>
<path d="M21.0065 42.1956C21.2157 41.5948 20.8983 40.9382 20.2975 40.7289C19.6967 40.5197 19.0401 40.8372 18.8309 41.438C18.4377 42.5671 18.2059 43.7676 18.1673 45.0125L18.1665 45.0385L18.1669 45.0645C18.1802 46.0039 18.2127 46.9815 18.2666 47.9929C18.3004 48.6282 18.8429 49.1157 19.4782 49.0818C20.1134 49.048 20.601 48.5055 20.5671 47.8703C20.5153 46.8981 20.4839 45.9594 20.4708 45.0585C20.5043 44.0636 20.6906 43.1028 21.0065 42.1956Z" fill="#0C96F3"/>
<path d="M108.605 53.8337C108.681 53.2019 108.23 52.6289 107.598 52.5536C106.966 52.4784 106.393 52.9295 106.318 53.5612C106.102 55.3767 105.815 57.2639 105.449 59.2029C105.331 59.828 105.741 60.4306 106.367 60.5488C106.992 60.667 107.594 60.256 107.712 59.6309C108.089 57.639 108.383 55.6999 108.605 53.8337Z" fill="#0C96F3"/>
<path d="M21.0754 53.5553C20.9968 52.924 20.4212 52.476 19.79 52.5546C19.1587 52.6333 18.7106 53.2088 18.7893 53.8401C19.0216 55.7053 19.3248 57.6434 19.7094 59.6343C19.8301 60.2589 20.4343 60.6674 21.0589 60.5468C21.6835 60.4261 22.0921 59.822 21.9714 59.1973C21.5968 57.2583 21.3016 55.371 21.0754 53.5553Z" fill="#0C96F3"/>
<path d="M23.2418 64.7683C23.0796 64.1532 22.4494 63.786 21.8343 63.9482C21.2191 64.1104 20.8519 64.7406 21.0141 65.3557C21.5018 67.2054 22.0624 69.0827 22.7033 70.9732C22.9076 71.5757 23.5616 71.8986 24.1641 71.6943C24.7666 71.49 25.0894 70.836 24.8852 70.2335C24.2619 68.3953 23.7165 66.5689 23.2418 64.7683Z" fill="#0C96F3"/>
<path d="M106.428 65.3553C106.588 64.7396 106.219 64.1106 105.603 63.9502C104.988 63.7898 104.359 64.1588 104.198 64.7744C103.729 66.5751 103.189 68.4017 102.57 70.2402C102.367 70.8431 102.691 71.4964 103.294 71.6994C103.897 71.9024 104.55 71.5781 104.753 70.9752C105.39 69.0839 105.945 67.2058 106.428 65.3553Z" fill="#0C96F3"/>
<path d="M26.9094 75.5666C26.6621 74.9805 25.9864 74.7059 25.4003 74.9532C24.8142 75.2005 24.5395 75.8762 24.7869 76.4623C25.5377 78.2415 26.3653 80.0206 27.276 81.7875C27.5674 82.353 28.2621 82.5752 28.8276 82.2838C29.3931 81.9923 29.6152 81.2976 29.3238 80.7321C28.4412 79.0196 27.6383 77.294 26.9094 75.5666Z" fill="#0C96F3"/>
<path d="M102.68 76.4662C102.927 75.8797 102.651 75.2044 102.064 74.958C101.478 74.7115 100.803 74.9872 100.556 75.5737C99.8305 77.3011 99.0302 79.0267 98.1499 80.7393C97.859 81.3051 98.0819 81.9996 98.6477 82.2904C99.2135 82.5813 99.908 82.3584 100.199 81.7926C101.107 80.0252 101.932 78.2458 102.68 76.4662Z" fill="#0C96F3"/>
<path d="M32.1332 85.6853C31.7971 85.1452 31.0867 84.9799 30.5466 85.3161C30.0065 85.6523 29.8412 86.3626 30.1774 86.9027C31.2009 88.5471 32.3048 90.1703 33.4943 91.7622C33.8752 92.2718 34.597 92.3762 35.1066 91.9954C35.6162 91.6145 35.7206 90.8927 35.3398 90.3831C34.1907 88.8454 33.1235 87.2762 32.1332 85.6853Z" fill="#0C96F3"/>
<path d="M97.303 86.9082C97.6388 86.3678 97.473 85.6576 96.9327 85.3218C96.3923 84.986 95.6821 85.1518 95.3463 85.6921C94.3577 87.2828 93.2919 88.8517 92.144 90.3891C91.7634 90.8989 91.8681 91.6207 92.3779 92.0013C92.8877 92.3819 93.6095 92.2772 93.9901 91.7674C95.1785 90.1756 96.281 88.5525 97.303 86.9082Z" fill="#0C96F3"/>
<path d="M38.9393 94.7826C38.5149 94.3086 37.7867 94.2683 37.3127 94.6927C36.8387 95.117 36.7985 95.8452 37.2228 96.3192C38.5142 97.7617 39.8871 99.1669 41.346 100.526C41.8115 100.96 42.5404 100.934 42.9741 100.468C43.4077 100.003 43.3819 99.274 42.9164 98.8404C41.5095 97.5298 40.1853 96.1744 38.9393 94.7826Z" fill="#0C96F3"/>
<path d="M90.2647 96.3237C90.6889 95.8496 90.6485 95.1214 90.1744 94.6972C89.7003 94.273 88.9721 94.3134 88.5479 94.7875C87.3029 96.1789 85.9795 97.5339 84.5735 98.8441C84.1081 99.2778 84.0824 100.007 84.5161 100.472C84.9498 100.938 85.6787 100.963 86.1441 100.53C87.6022 99.1707 88.9743 97.7659 90.2647 96.3237Z" fill="#0C96F3"/>
<path d="M47.2457 102.519C46.7426 102.13 46.0191 102.222 45.6297 102.725C45.2403 103.228 45.3324 103.952 45.8355 104.341C47.361 105.522 48.9653 106.655 50.652 107.733C51.1881 108.075 51.9003 107.918 52.2429 107.382C52.5855 106.846 52.4286 106.134 51.8925 105.791C50.2646 104.751 48.7169 103.658 47.2457 102.519Z" fill="#0C96F3"/>
<path d="M81.6572 104.343C82.1602 103.954 82.2523 103.23 81.8628 102.727C81.4733 102.224 80.7498 102.132 80.2468 102.522C78.7764 103.66 77.2295 104.753 75.6025 105.793C75.0665 106.135 74.9097 106.847 75.2523 107.384C75.5949 107.92 76.3072 108.076 76.8432 107.734C78.529 106.656 80.1325 105.524 81.6572 104.343Z" fill="#0C96F3"/>
<path d="M56.8168 108.641C56.2529 108.347 55.5571 108.565 55.2625 109.129C54.968 109.693 55.1864 110.389 55.7503 110.683C56.6118 111.133 57.4918 111.57 58.3907 111.992L58.3954 111.994C59.2386 112.386 60.1155 112.68 61.009 112.876C61.6304 113.013 62.2448 112.62 62.3815 111.999C62.5182 111.377 62.1253 110.763 61.5039 110.626C60.7726 110.465 60.0557 110.225 59.3666 109.905C58.4982 109.497 57.6484 109.076 56.8168 108.641Z" fill="#0C96F3"/>
<path d="M71.7476 110.684C72.3115 110.389 72.5297 109.693 72.2352 109.129C71.9406 108.565 71.2447 108.347 70.6808 108.642C69.8496 109.076 69 109.497 68.1319 109.905C67.4431 110.225 66.7263 110.465 65.9952 110.626C65.3739 110.763 64.981 111.377 65.1176 111.999C65.2543 112.62 65.8688 113.013 66.4901 112.876C67.3836 112.68 68.2605 112.386 69.1037 111.994L69.1086 111.992C70.007 111.57 70.8866 111.134 71.7476 110.684Z" fill="#0C96F3"/>
<path d="M63.7367 26.7814C64.4685 26.7813 65.1691 26.9377 65.823 27.2307L95.1401 39.5196C98.5654 40.9551 101.134 44.2905 101.103 48.1828C101.025 63.583 94.673 91.5064 67.847 104.199C65.2469 105.414 62.2265 105.414 59.6264 104.199C32.7926 91.5064 26.4465 63.583 26.2301 48.1828C26.35 44.2905 28.9111 40.9551 32.3333 39.5196L61.666 27.2307C62.3043 26.9377 63.0205 26.7813 63.7367 26.7814Z" fill="#F00B31"/>
<path fill-rule="evenodd" clip-rule="evenodd" d="M32.3455 39.5118L32.3296 39.5185C28.9076 40.9539 26.3466 44.2894 26.2267 48.1818C26.4431 63.5822 32.7889 91.5059 59.6215 104.199C62.2214 105.414 65.2418 105.414 67.8417 104.199C71.3615 102.533 74.5288 100.605 77.3756 98.4782C51.7011 96.1017 31.5996 74.5017 31.5996 48.2067C31.5996 45.2418 31.8552 42.3365 32.3455 39.5118Z" fill="#C3161C"/>
<path d="M81.9258 54.0187C82.9222 55.0087 82.9222 56.6086 81.9258 57.5986L61.5196 77.8743C60.5232 78.8643 58.913 78.8643 57.9166 77.8743L47.7113 67.7365C46.7152 66.7464 46.7152 65.1466 47.7113 64.1565C48.7075 63.1665 50.3225 63.1665 51.3189 64.1565L59.6464 72.4965L78.3228 54.0187C79.3192 53.0271 80.9294 53.0271 81.9258 54.0187Z" fill="white"/>
</svg>
