<svg width="128" height="128" viewBox="0 0 128 128" fill="none" xmlns="http://www.w3.org/2000/svg">
<path d="M50.5116 76.7158L38.2172 75.8376L77.7349 43.3452L50.5116 76.7158Z" fill="#C3161C"/>
<path d="M51.3897 88.132L50.5115 76.7158L77.7349 43.3452L51.3897 88.132Z" fill="#90091F"/>
<path d="M38.2171 75.8376L24.9067 60.1782C24.0768 59.2019 24.3663 57.708 25.5007 57.1122L97.2363 19.4411C98.8633 18.5866 100.685 20.1946 100.038 21.915L70.3948 100.831C69.9072 102.129 68.2786 102.549 67.224 101.649L51.3897 88.132L77.7349 43.3452L38.2171 75.8376Z" fill="#F00B31"/>
<path fill-rule="evenodd" clip-rule="evenodd" d="M43.811 86.9738C43.2143 87.5705 42.6299 88.2032 42.061 88.8685C41.5226 89.4981 40.5758 89.5721 39.9462 89.0337C39.3165 88.4953 39.2426 87.5484 39.781 86.9188C40.3987 86.1964 41.036 85.5063 41.6897 84.8525C42.2755 84.2667 43.2253 84.2667 43.811 84.8525C44.3968 85.4383 44.3968 86.388 43.811 86.9738ZM38.5235 90.9648C39.2217 91.4107 39.4261 92.3382 38.9801 93.0364C38.0597 94.4771 37.2176 96.0028 36.4738 97.5895C36.1221 98.3396 35.229 98.6626 34.4789 98.311C33.7288 97.9594 33.4058 97.0663 33.7574 96.3162C34.5566 94.6112 35.4617 92.9715 36.4519 91.4213C36.8979 90.7232 37.8254 90.5188 38.5235 90.9648ZM33.604 100.545C34.3941 100.794 34.8327 101.636 34.5837 102.426C34.0629 104.078 33.657 105.763 33.3834 107.458C33.2514 108.276 32.4814 108.832 31.6635 108.7C30.8457 108.568 30.2897 107.798 30.4217 106.98C30.7198 105.134 31.1605 103.307 31.7225 101.524C31.9715 100.734 32.8139 100.296 33.604 100.545ZM31.468 111.092C32.2964 111.087 32.9719 111.755 32.9768 112.583C32.9869 114.296 33.1501 115.995 33.483 117.658C33.6456 118.471 33.1189 119.261 32.3066 119.424C31.4943 119.586 30.704 119.06 30.5414 118.247C30.1683 116.384 29.988 114.493 29.9769 112.601C29.972 111.772 30.6396 111.097 31.468 111.092ZM33.0202 121.718C33.7793 121.386 34.6636 121.733 34.9953 122.492C35.3301 123.258 35.7094 124.012 36.1357 124.75C36.5497 125.468 36.3036 126.385 35.586 126.799C34.8684 127.213 33.9511 126.967 33.5371 126.25C33.0545 125.413 32.6251 124.56 32.2463 123.693C31.9146 122.934 32.2611 122.05 33.0202 121.718Z" fill="#0C96F3"/>
</svg>
